<svg xmlns="http://www.w3.org/2000/svg" width="108" height="56"><path d="M30.669 17.333a2.934 2.934 0 0 1 2.934 2.924l.064 16.884c0 .844-.677 1.526-1.51 1.526h-5.5l.66-3.81h1.77c.655 0 1.084-.488 1.277-1.585.183-1.053-.054-1.523-.714-1.523h-1.774l.281-1.58c.31-1.806 1.24-2.697 2.767-2.697h.292c.847 0 1.312-.142 1.376-.542.054-.273-.024-.645-.107-1.055-.092-.398-.187-.784-.323-1.001-.207-.365-.674-.543-1.415-.543-1.834 0-3.349.498-4.535 1.539-1.182 1.033-1.934 2.44-2.267 4.324l-.284 1.555h-3.719c-.06 0-3.904.436-3.904.436l3.54.543.143.523-2.166.187 2.275.33.088.43-6.782.378s7.323.281 7.385.281h2.574l-.664 3.81h-8.453c-.836 0-1.645-.82-1.645-1.663l.08-16.75a2.934 2.934 0 0 1 2.934-2.92h15.322zM23 24a5.333 5.333 0 0 0 5.333-5.333H17.667A5.333 5.333 0 0 0 23 24zm0-1.333a4 4 0 0 1-4-4h8a4 4 0 0 1-4 4zm26.882-1.587h-4.144l-.616 3.906H42.84l1.568-9.884h7.07l-.294 1.918h-4.802l-.336 2.254h4.13l-.294 1.806zm5.082 2.114l-.168 1.652a4.224 4.224 0 0 1-1.582.308c-.607 0-1.071-.14-1.393-.42-.322-.28-.483-.681-.483-1.204 0-.14.014-.294.042-.462l1.302-8.302h2.184l-1.218 7.756a3.31 3.31 0 0 0-.014.238c0 .224.04.373.119.448.08.075.24.112.483.112a2.7 2.7 0 0 0 .728-.126zM57.862 25h-2.17l1.162-7.378h2.17L57.862 25zm1.652-9.59c0 .392-.117.714-.35.966-.233.252-.593.378-1.078.378-.71 0-1.064-.313-1.064-.938 0-.392.117-.714.35-.966.233-.252.593-.378 1.078-.378.71 0 1.064.313 1.064.938zm5.362 2.058c.737 0 1.307.27 1.708.812.401.541.602 1.246.602 2.114 0 .57-.077 1.118-.231 1.645a5.447 5.447 0 0 1-.721 1.519c-.327.485-.793.875-1.4 1.169-.607.294-1.316.441-2.128.441a9.1 9.1 0 0 1-1.19-.098l-.084.826-.322 1.96h-2.17l1.624-10.234h1.708l-.056 1.568c.69-1.148 1.577-1.722 2.66-1.722zm-.7 1.876c-.29 0-.623.187-1.001.56a6.478 6.478 0 0 0-1.015 1.316l-.308 1.974c.327.103.7.154 1.12.154.672 0 1.174-.268 1.505-.805a3.33 3.33 0 0 0 .497-1.785c0-.41-.07-.749-.21-1.015-.14-.266-.336-.399-.588-.399zm9.044-1.722h2.226c-.047.616-.308 1.3-.784 2.051-.476.751-.947 1.337-1.414 1.757L74.634 25h-2.338l-1.092-2.758h-.882L69.888 25h-2.184l1.624-10.234h2.184l-.924 5.782c.588-.103.933-.177 1.036-.224.261-.168.581-.555.959-1.162.378-.607.59-1.12.637-1.54zm4.872 7.532c-.737 0-1.307-.27-1.708-.812-.401-.541-.602-1.246-.602-2.114 0-.448.044-.884.133-1.309.089-.425.245-.85.469-1.274.224-.425.502-.796.833-1.113.331-.317.76-.574 1.288-.77a5.053 5.053 0 0 1 1.771-.294c.924 0 2.007.135 3.248.406L82.404 25h-1.708l.056-1.568c-.672 1.148-1.559 1.722-2.66 1.722zm.7-1.876c.29 0 .623-.187 1.001-.56a6.478 6.478 0 0 0 1.015-1.316l.308-1.974a3.735 3.735 0 0 0-1.12-.154c-.672 0-1.174.268-1.505.805a3.33 3.33 0 0 0-.497 1.785c0 .41.07.749.21 1.015.14.266.336.399.588.399zM83.916 25l1.162-7.378H86.8l-.084 1.778c.756-1.288 1.699-1.932 2.828-1.932h.126l-.42 2.226c-.476 0-.947.147-1.414.441-.467.294-.85.651-1.148 1.071L86.1 25h-2.184zm10.388-2.002l-.21 1.82a5.855 5.855 0 0 1-1.904.336c-1.325 0-1.988-.607-1.988-1.82 0-.233.019-.457.056-.672l.518-3.318h-.854l.28-1.722h.896l.532-1.806h1.89l-.28 1.806h1.89l-.336 1.722h-1.82l-.476 3.066a1.68 1.68 0 0 0-.014.182c0 .252.049.422.147.511.098.089.32.133.665.133.317 0 .653-.08 1.008-.238zM51.75 41h-2.296l.616-3.906h-3.906L45.548 41h-2.282l1.568-9.898h2.282l-.63 4.004h3.906l.63-4.004h2.296L51.75 41zm4.97.14c-1.008-.019-1.792-.29-2.352-.812-.56-.523-.84-1.255-.84-2.198 0-1.381.394-2.504 1.183-3.367s1.841-1.295 3.157-1.295c1.045 0 1.855.259 2.429.777.574.518.861 1.258.861 2.219 0 1.428-.392 2.564-1.176 3.409-.784.845-1.871 1.267-3.262 1.267zm.238-1.82c.616 0 1.106-.231 1.47-.693.364-.462.546-1.094.546-1.897 0-.97-.415-1.456-1.246-1.456-.607 0-1.097.229-1.47.686-.373.457-.56 1.097-.56 1.918 0 .495.105.856.315 1.085.21.229.525.348.945.357zm15.05-5.852c.653 0 1.143.182 1.47.546.327.364.49.85.49 1.456 0 .252-.019.476-.056.672L73.128 41h-2.17l.686-4.312c.028-.14.042-.29.042-.448 0-.55-.196-.826-.588-.826-.541 0-1.2.602-1.974 1.806L68.522 41h-2.17l.686-4.312c.028-.14.042-.29.042-.448 0-.55-.196-.826-.588-.826-.541 0-1.204.607-1.988 1.82L63.902 41h-2.184l1.176-7.378h1.708l-.07 1.568c.392-.579.81-1.01 1.253-1.295.443-.285.982-.427 1.617-.427 1.092 0 1.731.495 1.918 1.484.71-.99 1.605-1.484 2.688-1.484zm9.94 2.226c-.075 1.717-1.358 2.576-3.85 2.576-.355 0-.7-.014-1.036-.042.047.43.198.737.455.924.257.187.698.28 1.323.28.737 0 1.498-.135 2.282-.406l-.336 1.778a8.479 8.479 0 0 1-2.52.364c-1.25 0-2.14-.266-2.667-.798-.527-.532-.791-1.302-.791-2.31 0-1.288.385-2.37 1.155-3.248.77-.877 1.808-1.316 3.115-1.316.98 0 1.703.198 2.17.595.467.397.7.931.7 1.603zm-4.774 1.162c.093.019.243.028.448.028 1.428 0 2.142-.331 2.142-.994 0-.215-.07-.39-.21-.525-.14-.135-.35-.203-.63-.203-.448 0-.819.15-1.113.448-.294.299-.506.714-.637 1.246z" fill="#FFF"/></svg>