<svg xmlns="http://www.w3.org/2000/svg" xmlns:xlink="http://www.w3.org/1999/xlink" width="121" height="19"><defs><path id="a" d="M0 0h24v24H0z"/></defs><g fill="none" fill-rule="evenodd"><path fill="#FFF" d="M28.936 14.568l.54-2.718c.252.168.78.336 1.584.504.804.168 1.602.252 2.394.252.744 0 1.365-.114 1.863-.342.498-.228.747-.558.747-.99 0-.288-.15-.537-.45-.747-.3-.21-.672-.369-1.116-.477a17.03 17.03 0 0 1-1.458-.432 11.704 11.704 0 0 1-1.458-.603 2.908 2.908 0 0 1-1.116-.999c-.3-.444-.45-.978-.45-1.602 0-1.368.525-2.433 1.575-3.195 1.05-.762 2.493-1.143 4.329-1.143.612 0 1.227.048 1.845.144.618.096 1.08.186 1.386.27.306.084.525.156.657.216l-.54 2.592c-.312-.168-.813-.321-1.503-.459a10.487 10.487 0 0 0-2.061-.207c-.732 0-1.365.111-1.899.333-.534.222-.801.543-.801.963 0 .276.15.51.45.702.3.192.672.339 1.116.441.444.102.93.246 1.458.432.528.186 1.014.393 1.458.621.444.228.816.576 1.116 1.044.3.468.45 1.02.45 1.656 0 1.44-.516 2.529-1.548 3.267s-2.496 1.107-4.392 1.107c-.708 0-1.41-.051-2.106-.153-.696-.102-1.218-.207-1.566-.315l-.504-.162zM50.23 5.514L48.718 15h-2.196l.072-2.016c-.996 1.476-2.274 2.214-3.834 2.214-.84 0-1.47-.234-1.89-.702-.42-.468-.63-1.092-.63-1.872 0-.324.024-.612.072-.864l1.008-6.246h2.79l-.882 5.544c-.036.18-.054.372-.054.576 0 .708.252 1.062.756 1.062.396 0 .84-.222 1.332-.666.492-.444.954-1.002 1.386-1.674l.774-4.842h2.808zm7.434-.198c.948 0 1.68.348 2.196 1.044.516.696.774 1.602.774 2.718 0 .732-.099 1.437-.297 2.115a7.004 7.004 0 0 1-.927 1.953c-.42.624-1.02 1.125-1.8 1.503-.78.378-1.692.567-2.736.567-.408 0-.918-.042-1.53-.126l-.108 1.062-.414 2.52h-2.79L52.12 5.514h2.196l-.072 2.016c.888-1.476 2.028-2.214 3.42-2.214zm-.9 2.412c-.372 0-.801.24-1.287.72a8.33 8.33 0 0 0-1.305 1.692l-.396 2.538c.42.132.9.198 1.44.198.864 0 1.509-.345 1.935-1.035.426-.69.639-1.455.639-2.295 0-.528-.09-.963-.27-1.305-.18-.342-.432-.513-.756-.513zm13.968.45c-.096 2.208-1.746 3.312-4.95 3.312-.456 0-.9-.018-1.332-.054.06.552.255.948.585 1.188.33.24.897.36 1.701.36.948 0 1.926-.174 2.934-.522l-.432 2.286a10.902 10.902 0 0 1-3.24.468c-1.608 0-2.751-.342-3.429-1.026-.678-.684-1.017-1.674-1.017-2.97 0-1.656.495-3.048 1.485-4.176.99-1.128 2.325-1.692 4.005-1.692 1.26 0 2.19.255 2.79.765.6.51.9 1.197.9 2.061zm-6.138 1.494c.12.024.312.036.576.036 1.836 0 2.754-.426 2.754-1.278a.897.897 0 0 0-.27-.675c-.18-.174-.45-.261-.81-.261-.576 0-1.053.192-1.431.576-.378.384-.651.918-.819 1.602zM71.506 15L73 5.514h2.214L75.106 7.8c.972-1.656 2.184-2.484 3.636-2.484h.162l-.54 2.862c-.612 0-1.218.189-1.818.567-.6.378-1.092.837-1.476 1.377L74.314 15h-2.808zm20.412-9.684c.84 0 1.47.234 1.89.702.42.468.63 1.092.63 1.872 0 .324-.024.612-.072.864L93.358 15h-2.79l.882-5.544c.036-.18.054-.372.054-.576 0-.708-.252-1.062-.756-1.062-.696 0-1.542.774-2.538 2.322L87.436 15h-2.79l.882-5.544c.036-.18.054-.372.054-.576 0-.708-.252-1.062-.756-1.062-.696 0-1.548.78-2.556 2.34L81.496 15h-2.808L80.2 5.514h2.196l-.09 2.016c.504-.744 1.041-1.299 1.611-1.665.57-.366 1.263-.549 2.079-.549 1.404 0 2.226.636 2.466 1.908.912-1.272 2.064-1.908 3.456-1.908zm6.57 9.882c-.948 0-1.68-.348-2.196-1.044-.516-.696-.774-1.602-.774-2.718 0-.576.057-1.137.171-1.683a6.246 6.246 0 0 1 .603-1.638 5.548 5.548 0 0 1 1.071-1.431c.426-.408.978-.738 1.656-.99.678-.252 1.437-.378 2.277-.378 1.188 0 2.58.174 4.176.522L104.032 15h-2.196l.072-2.016c-.864 1.476-2.004 2.214-3.42 2.214zm.9-2.412c.372 0 .801-.24 1.287-.72a8.33 8.33 0 0 0 1.305-1.692l.396-2.538c-.42-.132-.9-.198-1.44-.198-.864 0-1.509.345-1.935 1.035a4.282 4.282 0 0 0-.639 2.295c0 .528.09.963.27 1.305.18.342.432.513.756.513zM105.976 15l1.494-9.486h2.214l-.108 2.286c.972-1.656 2.184-2.484 3.636-2.484h.162l-.54 2.862c-.612 0-1.218.189-1.818.567-.6.378-1.092.837-1.476 1.377L108.784 15h-2.808zm13.356-2.574l-.27 2.34a7.528 7.528 0 0 1-2.448.432c-1.704 0-2.556-.78-2.556-2.34 0-.3.024-.588.072-.864l.666-4.266h-1.098l.36-2.214h1.152l.684-2.322h2.43l-.36 2.322h2.43l-.432 2.214h-2.34l-.612 3.942a2.401 2.401 0 0 0-.018.234c0 .324.063.543.189.657.126.114.411.171.855.171.408 0 .84-.102 1.296-.306z"/><g transform="translate(0 -3)"><mask id="b" fill="#fff"><use xlink:href="#a"/></mask><path fill="#FFF" d="M17.29 19l.472-2.646h1.264c.47 0 .774-.34.913-1.103.13-.732-.04-1.057-.51-1.057h-1.267l.2-1.099c.224-1.254.887-1.873 1.976-1.873h.207c.609 0 .938-.098.986-.377.036-.188-.019-.447-.078-.732-.065-.277-.134-.546-.23-.696-.146-.254-.482-.376-1.011-.376-1.31 0-2.386.357-3.234 1.078-.846.719-1.385 1.685-1.625 2.995l-.204 1.08h-2.653c-.044 0-2.787.301-2.787.301l2.527.379.101.364-1.547.128 1.626.232.064.296-4.845.265s5.23.195 5.27.195h1.842L14.272 19H4.417a2.591 2.591 0 0 1-2.596-2.521L.399 6.942c.11.021.221.033.335.033l8.327.003a3.284 3.284 0 0 0 6.05-1.248h8.147a.743.743 0 0 1 .734.845l-1.476 9.904A2.591 2.591 0 0 1 19.92 19h-2.63zM11.865 3a2.281 2.281 0 0 1 2.287 2.275 2.282 2.282 0 0 1-2.29 2.273A2.28 2.28 0 0 1 9.7 5.978L.734 5.975A.732.732 0 0 1 0 5.245c0-.403.329-.73.735-.73l8.98.004A2.28 2.28 0 0 1 11.865 3z" mask="url(#b)"/></g></g></svg>